<svg width="25" height="25" viewBox="0 0 25 25" fill="none" xmlns="http://www.w3.org/2000/svg">
<mask id="path-1-inside-1_5696_15" fill="white">
<path d="M18.9581 5.59614C17.6342 3.39672 15.2827 2.05301 12.6678 2.00166C12.5562 1.99945 12.4438 1.99945 12.3322 2.00166C9.71728 2.05301 7.36579 3.39672 6.04186 5.59614C4.68861 7.84429 4.65159 10.5448 5.9428 12.8199L11.3522 22.3514C11.3546 22.3556 11.357 22.3599 11.3595 22.3641C11.5975 22.7623 12.0239 23 12.5001 23C12.9762 23 13.4026 22.7622 13.6406 22.3641C13.6431 22.3599 13.6455 22.3556 13.6479 22.3514L19.0573 12.8199C20.3484 10.5448 20.3114 7.84429 18.9581 5.59614ZM12.5 11.5156C10.8085 11.5156 9.43238 10.1909 9.43238 8.56251C9.43238 6.93415 10.8085 5.60939 12.5 5.60939C14.1915 5.60939 15.5676 6.93415 15.5676 8.56251C15.5676 10.1909 14.1915 11.5156 12.5 11.5156Z"/>
</mask>
<path d="M18.9581 5.59614C17.6342 3.39672 15.2827 2.05301 12.6678 2.00166C12.5562 1.99945 12.4438 1.99945 12.3322 2.00166C9.71728 2.05301 7.36579 3.39672 6.04186 5.59614C4.68861 7.84429 4.65159 10.5448 5.9428 12.8199L11.3522 22.3514C11.3546 22.3556 11.357 22.3599 11.3595 22.3641C11.5975 22.7623 12.0239 23 12.5001 23C12.9762 23 13.4026 22.7622 13.6406 22.3641C13.6431 22.3599 13.6455 22.3556 13.6479 22.3514L19.0573 12.8199C20.3484 10.5448 20.3114 7.84429 18.9581 5.59614ZM12.5 11.5156C10.8085 11.5156 9.43238 10.1909 9.43238 8.56251C9.43238 6.93415 10.8085 5.60939 12.5 5.60939C14.1915 5.60939 15.5676 6.93415 15.5676 8.56251C15.5676 10.1909 14.1915 11.5156 12.5 11.5156Z" stroke="#015989" stroke-width="2.4" mask="url(#path-1-inside-1_5696_15)"/>
</svg>
